<svg id="Layer_2_00000114752434255013117150000012009625586167417784_" enable-background="new 0 0 512 512" viewBox="0 0 512 512" xmlns="http://www.w3.org/2000/svg" xmlns:xlink="http://www.w3.org/1999/xlink"><linearGradient id="SVGID_1_" gradientTransform="matrix(1 0 0 -1 0 512)" gradientUnits="userSpaceOnUse" x1="256.33" x2="256.33" y1="0" y2="512.008"><stop offset=".5" stop-color="#f56f00"/><stop offset="1" stop-color="#ffa514"/></linearGradient><linearGradient id="SVGID_00000142161157109978466140000017485548012152134021_" gradientTransform="matrix(1 0 0 -1 0 512)" gradientUnits="userSpaceOnUse" x1="256.53" x2="256.53" y1="41.92" y2="453.13"><stop offset=".3" stop-color="#f5d8b5"/><stop offset=".41" stop-color="#f8e4ca"/><stop offset=".54" stop-color="#fcefdf"/><stop offset=".67" stop-color="#fef6eb"/><stop offset=".8" stop-color="#fff9f0"/></linearGradient><linearGradient id="lg1"><stop offset=".2" stop-color="#f27100"/><stop offset=".8" stop-color="#ffcc4a"/></linearGradient><linearGradient id="SVGID_00000067203915920107719220000007951829203244297362_" gradientTransform="matrix(1 0 0 -1 0 512)" gradientUnits="userSpaceOnUse" x1="299.994" x2="567.28" xlink:href="#lg1" y1="-43.658" y2="223.638"/><linearGradient id="SVGID_00000082326340493340459820000013551384920503655093_" gradientTransform="matrix(-1 0 0 -1 495.37 512)" gradientUnits="userSpaceOnUse" x1="283.355" x2="550.645" xlink:href="#lg1" y1="-43.66" y2="223.63"/><linearGradient id="SVGID_00000011006445640893343080000011656809299211220390_" gradientTransform="matrix(1 0 0 -1 0 512)" gradientUnits="userSpaceOnUse" x1="256.33" x2="256.33" y1=".03" y2="225.148"><stop offset="0" stop-color="#fca800"/><stop offset="1" stop-color="#ffe736"/></linearGradient><linearGradient id="SVGID_00000060739415338486243940000014782081063083209120_" gradientTransform="matrix(1 0 0 -1 0 512)" gradientUnits="userSpaceOnUse" x1="193.692" x2="318.318" y1="401.458" y2="276.842"><stop offset="0" stop-color="#42c0ff"/><stop offset=".32" stop-color="#30adf1"/><stop offset=".98" stop-color="#017dd0"/><stop offset="1" stop-color="#007ccf"/></linearGradient><g id="Icon"><g id="_06"><g><path d="m503.1 224.1v235c0 29.2-23.7 52.9-52.9 52.9h-387.7c-29.2 0-52.9-23.7-52.9-52.9v-235l209.4-208.7c20.6-20.6 54-20.6 74.6 0z" fill="url(#SVGID_1_)"/><path d="m103.8 58.9h305.5c29.2 0 52.9 23.7 52.9 52.9v305.5c0 29.2-23.7 52.9-52.9 52.9h-305.5c-29.2 0-52.9-23.7-52.9-52.9v-305.6c0-29.2 23.7-52.8 52.9-52.8z" fill="url(#SVGID_00000142161157109978466140000017485548012152134021_)"/><path d="m503.1 224.1v235c0 29.2-23.7 52.9-52.9 52.9h-193.9l-.3-40.8z" fill="url(#SVGID_00000067203915920107719220000007951829203244297362_)"/><path d="m8.9 224.1v235c0 29.2 23.7 52.9 52.9 52.9h193.9l.3-40.8z" fill="url(#SVGID_00000082326340493340459820000013551384920503655093_)"/><path d="m487.7 496.4c-8.3 8.4-19.5 14-31.9 15.4l-395.2.2c-13.9-.5-26.5-6.4-35.7-15.6l194-194c20.6-20.6 54.1-20.6 74.8 0z" fill="url(#SVGID_00000011006445640893343080000011656809299211220390_)"/></g><g id="Badge"><circle cx="256" cy="172.9" fill="url(#SVGID_00000060739415338486243940000014782081063083209120_)" r="88.1"/><path d="m305.9 152.3h-99.9c-4.9 0-8.8-3.9-8.8-8.8 0-4.9 3.9-8.8 8.8-8.8h99.9c4.9 0 8.8 3.9 8.8 8.8 0 4.8-3.9 8.8-8.8 8.8zm8.8 20.5c0-4.9-4-8.8-8.8-8.8h-99.9c-4.9 0-8.8 3.9-8.8 8.8 0 4.9 3.9 8.8 8.8 8.8h99.9c4.9.1 8.8-3.9 8.8-8.8zm-47 29.4c0-4.9-4-8.8-8.8-8.8h-52.9c-4.9 0-8.8 3.9-8.8 8.8 0 4.9 3.9 8.8 8.8 8.8h52.9c4.9 0 8.8-3.9 8.8-8.8z" fill="#fff"/></g></g></g></svg>