<svg id="Layer_1" enable-background="new 0 0 512 512" viewBox="0 0 512 512" xmlns="http://www.w3.org/2000/svg"><g><circle cx="267" cy="267" fill="#01d0fb" r="245"/><circle cx="288.775" cy="271.622" fill="#01c0fa" r="200"/><path d="m342.194 112.83v-16.214c0-8.837-7.163-16-16-16h-310.194c-8.837 0-16 7.163-16 16v16.214c0 71.738 58.155 129.894 129.894 129.894h82.406c71.738 0 129.894-58.155 129.894-129.894z" fill="#fed402"/><path d="m156.925 235.438 156.925 105.88h28.344v-230.885z" fill="#fef056"/><path d="m0 325.318v-214.885l342.194 230.885h-326.194c-8.837 0-16-7.163-16-16z" fill="#fee903"/><path d="m281.007 410h-23.754c-17.673 0-32-14.327-32-32v-346c0-17.673 14.327-32 32-32h23.754c7.732 0 14 6.268 14 14v382c0 7.732-6.268 14-14 14z" fill="#2740b0"/><path d="m429.478 410h-150.01c-8.837 0-16-7.163-16-16v-378c0-8.837 7.163-16 16-16h150.01c17.673 0 32 14.327 32 32v346c0 17.673-14.327 32-32 32z" fill="#314dc9"/><path d="m426.366 380h-166c-4.418 0-8-3.582-8-8v-334c0-4.418 3.582-8 8-8h166c4.418 0 8 3.582 8 8v334c0 4.418-3.582 8-8 8z" fill="#0172fb"/><path d="m359.366 70h-32c-5.523 0-10-4.477-10-10 0-5.523 4.477-10 10-10h32c5.523 0 10 4.477 10 10 0 5.523-4.478 10-10 10z" fill="#01c0fa"/><path d="m293.325 296.106h100.081c5.523 0 10 4.477 10 10 0 5.523-4.477 10-10 10h-100.081c-5.523 0-10-4.477-10-10 0-5.522 4.477-10 10-10z" fill="#01c0fa"/><g fill="#99e6fc"><path d="m393.406 256.809c5.523 0 10 4.477 10 10 0 5.523-4.477 10-10 10-5.523 0-10-4.477-10-10 0-5.523 4.477-10 10-10z"/><path d="m360.046 256.809c5.523 0 10 4.477 10 10 0 5.523-4.477 10-10 10-5.523 0-10-4.477-10-10 0-5.523 4.477-10 10-10z"/><path d="m326.685 256.809c5.523 0 10 4.477 10 10 0 5.523-4.477 10-10 10-5.523 0-10-4.477-10-10 0-5.523 4.478-10 10-10z"/><path d="m293.325 256.809c5.523 0 10 4.477 10 10 0 5.523-4.477 10-10 10-5.523 0-10-4.477-10-10 0-5.523 4.477-10 10-10z"/></g><circle cx="343.366" cy="150.574" fill="#314dc9" r="65.872"/><path d="m342.359 166.951h2.013c14.007 0 25.362-11.355 25.362-25.362v-10.802c0-14.007-11.355-25.362-25.362-25.362h-2.013c-14.007 0-25.362 11.355-25.362 25.362v10.802c0 14.007 11.355 25.362 25.362 25.362z" fill="#ffe5c2"/><path d="m303.873 231.469h78.986c2.761 0 5-2.239 5-5v-17.737c0-16.569-13.431-30-30-30h-28.986c-16.569 0-30 13.431-30 30v17.737c0 2.762 2.238 5 5 5z" fill="#05e39c"/><path d="m369.859 355.404h-52.986c-5.523 0-10-4.477-10-10 0-5.523 4.477-10 10-10h52.986c5.523 0 10 4.477 10 10 0 5.523-4.477 10-10 10z" fill="#fea713"/><path d="m45.348 259.909c-6.873 6.873-9.088 16.986-6.114 26.24 12.816 39.882 39.27 83.132 77.651 121.514 33.279 33.279 77.48 61 112.706 75.286 9.63 3.905 13.387-1.613 20.735-8.961l.999-.999c12.523-12.523 9.17-33.714-6.694-41.59-29.635-14.712-59.82-36.326-87.488-63.994-31.466-31.466-55.103-66.188-69.661-99.654-7.278-16.734-29.231-20.745-42.134-7.842z" fill="#fd5426"/><path d="m76.553 199.044c-7.147 3.427-13.844 8.103-19.767 14.025-28.118 28.118-28.118 73.706 0 101.823 28.118 28.118 73.706 28.118 101.823 0 5.923-5.923 10.598-12.621 14.025-19.767z" fill="#fe7701"/><path d="m231.575 354.066c-7.147 3.427-13.844 8.103-19.767 14.025-28.118 28.118-28.118 73.706 0 101.823 28.118 28.118 73.706 28.118 101.823 0 5.923-5.923 10.598-12.621 14.025-19.767z" fill="#fe7701"/><path d="m179.215 294.287c-5.858 5.858-15.355 5.858-21.213 0l-80.61-80.61c-5.858-5.858-5.858-15.355 0-21.213 5.858-5.858 15.355-5.858 21.213 0l80.61 80.61c5.858 5.858 5.858 15.355 0 21.213z" fill="#fea713"/><path d="m334.237 449.309c-5.858 5.858-15.355 5.858-21.213 0l-80.61-80.61c-5.858-5.858-5.858-15.355 0-21.213 5.858-5.858 15.355-5.858 21.213 0l80.61 80.61c5.858 5.857 5.858 15.355 0 21.213z" fill="#fea713"/></g><g/><g/><g/><g/><g/><g/><g/><g/><g/><g/><g/><g/><g/><g/><g/></svg>